<svg xmlns="http://www.w3.org/2000/svg" xmlns:xlink="http://www.w3.org/1999/xlink" width="5000" zoomAndPan="magnify" viewBox="0 0 3750 3749.999967" height="5000" preserveAspectRatio="xMidYMid meet" version="1.0"><defs><g/><clipPath id="0bdead13dc"><path d="M 1975.339844 536.1875 L 3370 536.1875 L 3370 3222 L 1975.339844 3222 Z M 1975.339844 536.1875 " clip-rule="nonzero"/></clipPath><clipPath id="4c3087c72c"><path d="M 2050.339844 536.1875 L 3295 536.1875 C 3314.890625 536.1875 3333.964844 544.089844 3348.03125 558.152344 C 3362.097656 572.21875 3370 591.296875 3370 611.1875 L 3370 3148.300781 C 3370 3168.191406 3362.097656 3187.269531 3348.03125 3201.335938 C 3333.964844 3215.398438 3314.890625 3223.300781 3295 3223.300781 L 2050.339844 3223.300781 C 2030.445312 3223.300781 2011.371094 3215.398438 1997.304688 3201.335938 C 1983.238281 3187.269531 1975.339844 3168.191406 1975.339844 3148.300781 L 1975.339844 611.1875 C 1975.339844 591.296875 1983.238281 572.21875 1997.304688 558.152344 C 2011.371094 544.089844 2030.445312 536.1875 2050.339844 536.1875 Z M 2050.339844 536.1875 " clip-rule="nonzero"/></clipPath><clipPath id="b915bddcef"><path d="M 1914 466.402344 L 3423 466.402344 L 3423 3277.992188 L 1914 3277.992188 Z M 1914 466.402344 " clip-rule="nonzero"/></clipPath><clipPath id="24a1f55864"><path d="M 2725 950.054688 L 3141 950.054688 L 3141 1348 L 2725 1348 Z M 2725 950.054688 " clip-rule="nonzero"/></clipPath><clipPath id="5987f00a11"><path d="M 3102.640625 1347.257812 L 2763.347656 1347.257812 C 2753.402344 1347.257812 2743.867188 1343.304688 2736.832031 1336.273438 C 2729.800781 1329.242188 2725.847656 1319.703125 2725.847656 1309.757812 L 2725.847656 987.554688 C 2725.847656 977.609375 2729.800781 968.074219 2736.832031 961.039062 C 2743.867188 954.007812 2753.402344 950.054688 2763.347656 950.054688 L 3102.640625 950.054688 C 3112.585938 950.054688 3122.125 954.007812 3129.15625 961.039062 C 3136.191406 968.074219 3140.140625 977.609375 3140.140625 987.554688 L 3140.140625 1309.757812 C 3140.140625 1319.703125 3136.191406 1329.242188 3129.15625 1336.273438 C 3122.125 1343.304688 3112.585938 1347.257812 3102.640625 1347.257812 Z M 3102.640625 1347.257812 " clip-rule="nonzero"/></clipPath><clipPath id="d97dd54eaf"><path d="M 2205 950.054688 L 2620 950.054688 L 2620 1348 L 2205 1348 Z M 2205 950.054688 " clip-rule="nonzero"/></clipPath><clipPath id="92470be5b8"><path d="M 2581.972656 1347.257812 L 2242.679688 1347.257812 C 2232.734375 1347.257812 2223.195312 1343.304688 2216.164062 1336.273438 C 2209.128906 1329.242188 2205.179688 1319.703125 2205.179688 1309.757812 L 2205.179688 987.554688 C 2205.179688 977.609375 2209.128906 968.074219 2216.164062 961.039062 C 2223.195312 954.007812 2232.734375 950.054688 2242.679688 950.054688 L 2581.972656 950.054688 C 2591.917969 950.054688 2601.457031 954.007812 2608.488281 961.039062 C 2615.519531 968.074219 2619.472656 977.609375 2619.472656 987.554688 L 2619.472656 1309.757812 C 2619.472656 1319.703125 2615.519531 1329.242188 2608.488281 1336.273438 C 2601.457031 1343.304688 2591.917969 1347.257812 2581.972656 1347.257812 Z M 2581.972656 1347.257812 " clip-rule="nonzero"/></clipPath><clipPath id="6848fe2c32"><path d="M 2725 1447.582031 L 3141 1447.582031 L 3141 1845 L 2725 1845 Z M 2725 1447.582031 " clip-rule="nonzero"/></clipPath><clipPath id="5835d46d87"><path d="M 3102.640625 1844.78125 L 2763.347656 1844.78125 C 2753.402344 1844.78125 2743.867188 1840.832031 2736.832031 1833.800781 C 2729.800781 1826.765625 2725.847656 1817.226562 2725.847656 1807.28125 L 2725.847656 1485.082031 C 2725.847656 1475.136719 2729.800781 1465.597656 2736.832031 1458.566406 C 2743.867188 1451.535156 2753.402344 1447.582031 2763.347656 1447.582031 L 3102.640625 1447.582031 C 3112.585938 1447.582031 3122.125 1451.535156 3129.15625 1458.566406 C 3136.191406 1465.597656 3140.140625 1475.136719 3140.140625 1485.082031 L 3140.140625 1807.28125 C 3140.140625 1817.226562 3136.191406 1826.765625 3129.15625 1833.800781 C 3122.125 1840.832031 3112.585938 1844.78125 3102.640625 1844.78125 Z M 3102.640625 1844.78125 " clip-rule="nonzero"/></clipPath><clipPath id="da45af98a7"><path d="M 2205 1447.582031 L 2620 1447.582031 L 2620 1845 L 2205 1845 Z M 2205 1447.582031 " clip-rule="nonzero"/></clipPath><clipPath id="affe1e80e8"><path d="M 2581.972656 1844.78125 L 2242.679688 1844.78125 C 2232.734375 1844.78125 2223.195312 1840.832031 2216.164062 1833.800781 C 2209.128906 1826.765625 2205.179688 1817.226562 2205.179688 1807.28125 L 2205.179688 1485.082031 C 2205.179688 1475.136719 2209.128906 1465.597656 2216.164062 1458.566406 C 2223.195312 1451.535156 2232.734375 1447.582031 2242.679688 1447.582031 L 2581.972656 1447.582031 C 2591.917969 1447.582031 2601.457031 1451.535156 2608.488281 1458.566406 C 2615.519531 1465.597656 2619.472656 1475.136719 2619.472656 1485.082031 L 2619.472656 1807.28125 C 2619.472656 1817.226562 2615.519531 1826.765625 2608.488281 1833.800781 C 2601.457031 1840.832031 2591.917969 1844.78125 2581.972656 1844.78125 Z M 2581.972656 1844.78125 " clip-rule="nonzero"/></clipPath><clipPath id="312a9c95ed"><path d="M 2827.472656 1043.140625 L 3038.523438 1043.140625 L 3038.523438 1254.191406 L 2827.472656 1254.191406 Z M 2827.472656 1043.140625 " clip-rule="nonzero"/></clipPath><clipPath id="8e5dd12571"><path d="M 3038.523438 1148.664062 L 2966.574219 1182.242188 L 2932.996094 1254.191406 L 2899.417969 1182.242188 L 2827.472656 1148.664062 L 2899.417969 1115.085938 L 2932.996094 1043.140625 L 2966.574219 1115.085938 Z M 3038.523438 1148.664062 " clip-rule="nonzero"/></clipPath><clipPath id="652dedca94"><path d="M 2827.472656 1540.667969 L 3038.523438 1540.667969 L 3038.523438 1751.714844 L 2827.472656 1751.714844 Z M 2827.472656 1540.667969 " clip-rule="nonzero"/></clipPath><clipPath id="62add0fdb0"><path d="M 3038.523438 1646.191406 L 2966.574219 1679.769531 L 2932.996094 1751.714844 L 2899.417969 1679.769531 L 2827.472656 1646.191406 L 2899.417969 1612.613281 L 2932.996094 1540.667969 L 2966.574219 1612.613281 Z M 3038.523438 1646.191406 " clip-rule="nonzero"/></clipPath><clipPath id="3810bd50ef"><path d="M 2306.800781 1043.140625 L 2517.851562 1043.140625 L 2517.851562 1254.191406 L 2306.800781 1254.191406 Z M 2306.800781 1043.140625 " clip-rule="nonzero"/></clipPath><clipPath id="99d2bb841e"><path d="M 2517.851562 1148.664062 L 2445.90625 1182.242188 L 2412.328125 1254.191406 L 2378.75 1182.242188 L 2306.800781 1148.664062 L 2378.75 1115.085938 L 2412.328125 1043.140625 L 2445.90625 1115.085938 Z M 2517.851562 1148.664062 " clip-rule="nonzero"/></clipPath><clipPath id="7371111a9e"><path d="M 2306.800781 1540.667969 L 2517.851562 1540.667969 L 2517.851562 1751.714844 L 2306.800781 1751.714844 Z M 2306.800781 1540.667969 " clip-rule="nonzero"/></clipPath><clipPath id="1b67f8ebfc"><path d="M 2517.851562 1646.191406 L 2445.90625 1679.769531 L 2412.328125 1751.714844 L 2378.75 1679.769531 L 2306.800781 1646.191406 L 2378.75 1612.613281 L 2412.328125 1540.667969 L 2445.90625 1612.613281 Z M 2517.851562 1646.191406 " clip-rule="nonzero"/></clipPath><clipPath id="bfe4f2b3bd"><path d="M 2725 1945.28125 L 3141 1945.28125 L 3141 2343 L 2725 2343 Z M 2725 1945.28125 " clip-rule="nonzero"/></clipPath><clipPath id="a88dfa23b3"><path d="M 3102.640625 2342.484375 L 2763.347656 2342.484375 C 2753.402344 2342.484375 2743.867188 2338.53125 2736.832031 2331.5 C 2729.800781 2324.464844 2725.847656 2314.929688 2725.847656 2304.984375 L 2725.847656 1982.78125 C 2725.847656 1972.835938 2729.800781 1963.296875 2736.832031 1956.265625 C 2743.867188 1949.234375 2753.402344 1945.28125 2763.347656 1945.28125 L 3102.640625 1945.28125 C 3112.585938 1945.28125 3122.125 1949.234375 3129.15625 1956.265625 C 3136.191406 1963.296875 3140.140625 1972.835938 3140.140625 1982.78125 L 3140.140625 2304.984375 C 3140.140625 2314.929688 3136.191406 2324.464844 3129.15625 2331.5 C 3122.125 2338.53125 3112.585938 2342.484375 3102.640625 2342.484375 Z M 3102.640625 2342.484375 " clip-rule="nonzero"/></clipPath><clipPath id="79464d9f77"><path d="M 2205 1945.28125 L 2620 1945.28125 L 2620 2343 L 2205 2343 Z M 2205 1945.28125 " clip-rule="nonzero"/></clipPath><clipPath id="47de9567fa"><path d="M 2581.972656 2342.484375 L 2242.679688 2342.484375 C 2232.734375 2342.484375 2223.195312 2338.53125 2216.164062 2331.5 C 2209.128906 2324.464844 2205.179688 2314.929688 2205.179688 2304.984375 L 2205.179688 1982.78125 C 2205.179688 1972.835938 2209.128906 1963.296875 2216.164062 1956.265625 C 2223.195312 1949.234375 2232.734375 1945.28125 2242.679688 1945.28125 L 2581.972656 1945.28125 C 2591.917969 1945.28125 2601.457031 1949.234375 2608.488281 1956.265625 C 2615.519531 1963.296875 2619.472656 1972.835938 2619.472656 1982.78125 L 2619.472656 2304.984375 C 2619.472656 2314.929688 2615.519531 2324.464844 2608.488281 2331.5 C 2601.457031 2338.53125 2591.917969 2342.484375 2581.972656 2342.484375 Z M 2581.972656 2342.484375 " clip-rule="nonzero"/></clipPath><clipPath id="d1963d302f"><path d="M 2827.472656 2038.367188 L 3038.523438 2038.367188 L 3038.523438 2249.417969 L 2827.472656 2249.417969 Z M 2827.472656 2038.367188 " clip-rule="nonzero"/></clipPath><clipPath id="ab58b30161"><path d="M 3038.523438 2143.890625 L 2966.574219 2177.46875 L 2932.996094 2249.417969 L 2899.417969 2177.46875 L 2827.472656 2143.890625 L 2899.417969 2110.3125 L 2932.996094 2038.367188 L 2966.574219 2110.3125 Z M 3038.523438 2143.890625 " clip-rule="nonzero"/></clipPath><clipPath id="a0231d34e8"><path d="M 2306.800781 2038.367188 L 2517.851562 2038.367188 L 2517.851562 2249.417969 L 2306.800781 2249.417969 Z M 2306.800781 2038.367188 " clip-rule="nonzero"/></clipPath><clipPath id="b83e38c8df"><path d="M 2517.851562 2143.890625 L 2445.90625 2177.46875 L 2412.328125 2249.417969 L 2378.75 2177.46875 L 2306.800781 2143.890625 L 2378.75 2110.3125 L 2412.328125 2038.367188 L 2445.90625 2110.3125 Z M 2517.851562 2143.890625 " clip-rule="nonzero"/></clipPath><clipPath id="aec29c9248"><path d="M 2134.378906 2535.90625 L 3203.304688 2535.90625 L 3203.304688 2938.636719 L 2134.378906 2938.636719 Z M 2134.378906 2535.90625 " clip-rule="nonzero"/></clipPath><clipPath id="1370541246"><path d="M 3128.308594 2938.636719 L 2209.046875 2938.636719 C 2189.15625 2938.636719 2170.082031 2930.734375 2156.015625 2916.667969 C 2141.949219 2902.605469 2134.050781 2883.527344 2134.050781 2863.636719 L 2134.050781 2610.933594 C 2134.050781 2591.042969 2141.949219 2571.964844 2156.015625 2557.902344 C 2170.082031 2543.835938 2189.15625 2535.933594 2209.046875 2535.933594 L 3128.308594 2535.933594 C 3148.199219 2535.933594 3167.273438 2543.835938 3181.339844 2557.902344 C 3195.402344 2571.964844 3203.304688 2591.042969 3203.304688 2610.933594 L 3203.304688 2863.636719 C 3203.304688 2883.527344 3195.402344 2902.605469 3181.339844 2916.667969 C 3167.273438 2930.734375 3148.199219 2938.636719 3128.308594 2938.636719 Z M 3128.308594 2938.636719 " clip-rule="nonzero"/></clipPath><clipPath id="4d508483d3"><path d="M 1222.992188 536.1875 L 2617.652344 536.1875 L 2617.652344 3222 L 1222.992188 3222 Z M 1222.992188 536.1875 " clip-rule="nonzero"/></clipPath><clipPath id="a2f7131c6c"><path d="M 1297.992188 536.1875 L 2542.652344 536.1875 C 2562.542969 536.1875 2581.621094 544.089844 2595.6875 558.152344 C 2609.75 572.21875 2617.652344 591.296875 2617.652344 611.1875 L 2617.652344 3148.300781 C 2617.652344 3168.191406 2609.75 3187.269531 2595.6875 3201.335938 C 2581.621094 3215.398438 2562.542969 3223.300781 2542.652344 3223.300781 L 1297.992188 3223.300781 C 1278.101562 3223.300781 1259.023438 3215.398438 1244.960938 3201.335938 C 1230.894531 3187.269531 1222.992188 3168.191406 1222.992188 3148.300781 L 1222.992188 611.1875 C 1222.992188 591.296875 1230.894531 572.21875 1244.960938 558.152344 C 1259.023438 544.089844 1278.101562 536.1875 1297.992188 536.1875 Z M 1297.992188 536.1875 " clip-rule="nonzero"/></clipPath><clipPath id="0ac01b57c9"><path d="M 2271.167969 1823.105469 L 2364.554688 1823.105469 L 2364.554688 1916.492188 L 2271.167969 1916.492188 Z M 2271.167969 1823.105469 " clip-rule="nonzero"/></clipPath><clipPath id="041d0419de"><path d="M 1162 466.402344 L 2671 466.402344 L 2671 3277.992188 L 1162 3277.992188 Z M 1162 466.402344 " clip-rule="nonzero"/></clipPath><clipPath id="6a1359f79a"><path d="M 374 1966.75 L 2153.289062 1966.75 L 2153.289062 3283.59375 L 374 3283.59375 Z M 374 1966.75 " clip-rule="nonzero"/></clipPath><clipPath id="1726d167f6"><path d="M 2153.289062 2041.75 L 2153.289062 3208.59375 C 2153.289062 3228.488281 2145.386719 3247.5625 2131.320312 3261.628906 C 2117.253906 3275.695312 2098.179688 3283.59375 2078.289062 3283.59375 L 449.992188 3283.59375 C 430.097656 3283.59375 411.023438 3275.695312 396.957031 3261.628906 C 382.890625 3247.5625 374.992188 3228.488281 374.992188 3208.59375 L 374.992188 2041.75 C 374.992188 2021.859375 382.890625 2002.78125 396.957031 1988.71875 C 411.023438 1974.652344 430.097656 1966.75 449.992188 1966.75 L 2078.289062 1966.75 C 2098.179688 1966.75 2117.253906 1974.652344 2131.320312 1988.71875 C 2145.386719 2002.78125 2153.289062 2021.859375 2153.289062 2041.75 Z M 2153.289062 2041.75 " clip-rule="nonzero"/></clipPath><clipPath id="269d41af2c"><path d="M 375 1966.75 L 2153.289062 1966.75 L 2153.289062 3283.328125 L 375 3283.328125 Z M 375 1966.75 " clip-rule="nonzero"/></clipPath><clipPath id="98f0240802"><path d="M 2153.289062 2041.75 L 2153.289062 3208.589844 C 2153.289062 3228.480469 2145.386719 3247.554688 2131.320312 3261.621094 C 2117.253906 3275.6875 2098.179688 3283.585938 2078.289062 3283.585938 L 450.003906 3283.585938 C 430.113281 3283.585938 411.035156 3275.6875 396.96875 3261.621094 C 382.90625 3247.554688 375.003906 3228.480469 375.003906 3208.589844 L 375.003906 2041.75 C 375.003906 2021.859375 382.90625 2002.785156 396.96875 1988.71875 C 411.035156 1974.652344 430.113281 1966.75 450.003906 1966.75 L 2078.289062 1966.75 C 2098.179688 1966.75 2117.253906 1974.652344 2131.320312 1988.71875 C 2145.386719 2002.785156 2153.289062 2021.859375 2153.289062 2041.75 Z M 2153.289062 2041.75 " clip-rule="nonzero"/></clipPath><clipPath id="2124d5eefb"><path d="M 497.351562 2110.304688 L 934.820312 2110.304688 L 934.820312 2567 L 497.351562 2567 Z M 497.351562 2110.304688 " clip-rule="nonzero"/></clipPath><clipPath id="88e1eb911c"><path d="M 934.820312 2147.804688 L 934.820312 2529.09375 C 934.820312 2549.804688 918.03125 2566.59375 897.320312 2566.59375 L 534.851562 2566.59375 C 514.144531 2566.59375 497.351562 2549.804688 497.351562 2529.09375 L 497.351562 2147.804688 C 497.351562 2127.09375 514.144531 2110.304688 534.851562 2110.304688 L 897.320312 2110.304688 C 918.03125 2110.304688 934.820312 2127.09375 934.820312 2147.804688 Z M 934.820312 2147.804688 " clip-rule="nonzero"/></clipPath><clipPath id="d3a8353dcf"><path d="M 497.351562 2683.757812 L 934.820312 2683.757812 L 934.820312 3141 L 497.351562 3141 Z M 497.351562 2683.757812 " clip-rule="nonzero"/></clipPath><clipPath id="f720cc7485"><path d="M 934.820312 2721.257812 L 934.820312 3102.546875 C 934.820312 3123.257812 918.03125 3140.046875 897.320312 3140.046875 L 534.851562 3140.046875 C 514.144531 3140.046875 497.351562 3123.257812 497.351562 3102.546875 L 497.351562 2721.257812 C 497.351562 2700.546875 514.144531 2683.757812 534.851562 2683.757812 L 897.320312 2683.757812 C 918.03125 2683.757812 934.820312 2700.546875 934.820312 2721.257812 Z M 934.820312 2721.257812 " clip-rule="nonzero"/></clipPath><clipPath id="b2b5d7e7b8"><path d="M 1045.316406 2110.304688 L 1482.78125 2110.304688 L 1482.78125 2567 L 1045.316406 2567 Z M 1045.316406 2110.304688 " clip-rule="nonzero"/></clipPath><clipPath id="77bc4dee20"><path d="M 1482.78125 2147.804688 L 1482.78125 2529.09375 C 1482.78125 2549.804688 1465.992188 2566.59375 1445.28125 2566.59375 L 1082.816406 2566.59375 C 1062.105469 2566.59375 1045.316406 2549.804688 1045.316406 2529.09375 L 1045.316406 2147.804688 C 1045.316406 2127.09375 1062.105469 2110.304688 1082.816406 2110.304688 L 1445.28125 2110.304688 C 1465.992188 2110.304688 1482.78125 2127.09375 1482.78125 2147.804688 Z M 1482.78125 2147.804688 " clip-rule="nonzero"/></clipPath><clipPath id="86aeefbda3"><path d="M 1045.316406 2683.757812 L 1482.78125 2683.757812 L 1482.78125 3141 L 1045.316406 3141 Z M 1045.316406 2683.757812 " clip-rule="nonzero"/></clipPath><clipPath id="a888c10074"><path d="M 1482.78125 2721.257812 L 1482.78125 3102.546875 C 1482.78125 3123.257812 1465.992188 3140.046875 1445.28125 3140.046875 L 1082.816406 3140.046875 C 1062.105469 3140.046875 1045.316406 3123.257812 1045.316406 3102.546875 L 1045.316406 2721.257812 C 1045.316406 2700.546875 1062.105469 2683.757812 1082.816406 2683.757812 L 1445.28125 2683.757812 C 1465.992188 2683.757812 1482.78125 2700.546875 1482.78125 2721.257812 Z M 1482.78125 2721.257812 " clip-rule="nonzero"/></clipPath><clipPath id="94769fd3bd"><path d="M 599.867188 2222.226562 L 832.3125 2222.226562 L 832.3125 2454.671875 L 599.867188 2454.671875 Z M 599.867188 2222.226562 " clip-rule="nonzero"/></clipPath><clipPath id="8a15749ce6"><path d="M 716.089844 2222.226562 L 753.070312 2301.46875 L 832.3125 2338.449219 L 753.070312 2375.429688 L 716.089844 2454.671875 L 679.109375 2375.429688 L 599.867188 2338.449219 L 679.109375 2301.46875 Z M 716.089844 2222.226562 " clip-rule="nonzero"/></clipPath><clipPath id="c7d58f693d"><path d="M 1147.832031 2222.226562 L 1380.277344 2222.226562 L 1380.277344 2454.671875 L 1147.832031 2454.671875 Z M 1147.832031 2222.226562 " clip-rule="nonzero"/></clipPath><clipPath id="d49643a239"><path d="M 1264.054688 2222.226562 L 1301.035156 2301.46875 L 1380.277344 2338.449219 L 1301.035156 2375.429688 L 1264.054688 2454.671875 L 1227.070312 2375.429688 L 1147.832031 2338.449219 L 1227.070312 2301.46875 Z M 1264.054688 2222.226562 " clip-rule="nonzero"/></clipPath><clipPath id="85055b4f73"><path d="M 599.867188 2795.679688 L 832.3125 2795.679688 L 832.3125 3028.125 L 599.867188 3028.125 Z M 599.867188 2795.679688 " clip-rule="nonzero"/></clipPath><clipPath id="bdfdf6cf6e"><path d="M 716.089844 2795.679688 L 753.070312 2874.921875 L 832.3125 2911.902344 L 753.070312 2948.882812 L 716.089844 3028.125 L 679.109375 2948.882812 L 599.867188 2911.902344 L 679.109375 2874.921875 Z M 716.089844 2795.679688 " clip-rule="nonzero"/></clipPath><clipPath id="4fab9fa2dc"><path d="M 1147.832031 2795.679688 L 1380.277344 2795.679688 L 1380.277344 3028.125 L 1147.832031 3028.125 Z M 1147.832031 2795.679688 " clip-rule="nonzero"/></clipPath><clipPath id="e04d44b773"><path d="M 1264.054688 2795.679688 L 1301.035156 2874.921875 L 1380.277344 2911.902344 L 1301.035156 2948.882812 L 1264.054688 3028.125 L 1227.070312 2948.882812 L 1147.832031 2911.902344 L 1227.070312 2874.921875 Z M 1264.054688 2795.679688 " clip-rule="nonzero"/></clipPath><clipPath id="d2329c976c"><path d="M 1593.46875 2110.304688 L 2030.933594 2110.304688 L 2030.933594 2567 L 1593.46875 2567 Z M 1593.46875 2110.304688 " clip-rule="nonzero"/></clipPath><clipPath id="9efae5a821"><path d="M 2030.933594 2147.804688 L 2030.933594 2529.09375 C 2030.933594 2549.804688 2014.144531 2566.59375 1993.433594 2566.59375 L 1630.96875 2566.59375 C 1610.257812 2566.59375 1593.46875 2549.804688 1593.46875 2529.09375 L 1593.46875 2147.804688 C 1593.46875 2127.09375 1610.257812 2110.304688 1630.96875 2110.304688 L 1993.433594 2110.304688 C 2014.144531 2110.304688 2030.933594 2127.09375 2030.933594 2147.804688 Z M 2030.933594 2147.804688 " clip-rule="nonzero"/></clipPath><clipPath id="5927202022"><path d="M 1593.46875 2683.757812 L 2030.933594 2683.757812 L 2030.933594 3141 L 1593.46875 3141 Z M 1593.46875 2683.757812 " clip-rule="nonzero"/></clipPath><clipPath id="b70706b646"><path d="M 2030.933594 2721.257812 L 2030.933594 3102.546875 C 2030.933594 3123.257812 2014.144531 3140.046875 1993.433594 3140.046875 L 1630.96875 3140.046875 C 1610.257812 3140.046875 1593.46875 3123.257812 1593.46875 3102.546875 L 1593.46875 2721.257812 C 1593.46875 2700.546875 1610.257812 2683.757812 1630.96875 2683.757812 L 1993.433594 2683.757812 C 2014.144531 2683.757812 2030.933594 2700.546875 2030.933594 2721.257812 Z M 2030.933594 2721.257812 " clip-rule="nonzero"/></clipPath><clipPath id="4df941fd86"><path d="M 1695.984375 2222.226562 L 1928.429688 2222.226562 L 1928.429688 2454.671875 L 1695.984375 2454.671875 Z M 1695.984375 2222.226562 " clip-rule="nonzero"/></clipPath><clipPath id="4dd9c78a8b"><path d="M 1812.207031 2222.226562 L 1849.1875 2301.46875 L 1928.429688 2338.449219 L 1849.1875 2375.429688 L 1812.207031 2454.671875 L 1775.226562 2375.429688 L 1695.984375 2338.449219 L 1775.226562 2301.46875 Z M 1812.207031 2222.226562 " clip-rule="nonzero"/></clipPath><clipPath id="8236988757"><path d="M 1695.984375 2795.679688 L 1928.429688 2795.679688 L 1928.429688 3028.125 L 1695.984375 3028.125 Z M 1695.984375 2795.679688 " clip-rule="nonzero"/></clipPath><clipPath id="be95bf24f9"><path d="M 1812.207031 2795.679688 L 1849.1875 2874.921875 L 1928.429688 2911.902344 L 1849.1875 2948.882812 L 1812.207031 3028.125 L 1775.226562 2948.882812 L 1695.984375 2911.902344 L 1775.226562 2874.921875 Z M 1812.207031 2795.679688 " clip-rule="nonzero"/></clipPath></defs><g clip-path="url(#0bdead13dc)"><g clip-path="url(#4c3087c72c)"><path fill="#3f0591" d="M 1975.339844 536.1875 L 3370 536.1875 L 3370 3221.996094 L 1975.339844 3221.996094 Z M 1975.339844 536.1875 " fill-opacity="1" fill-rule="nonzero"/></g></g><g clip-path="url(#b915bddcef)"><path fill="#ffde59" d="M 3341.914062 3034.753906 C 3341.914062 3124.183594 3269.417969 3196.695312 3179.972656 3196.695312 L 2157.46875 3196.695312 C 2068.023438 3196.695312 1995.527344 3124.183594 1995.527344 3034.753906 L 1995.527344 709.3125 C 1995.527344 619.867188 2068.023438 547.371094 2157.46875 547.371094 L 2365.457031 547.371094 C 2376.4375 547.371094 2385.351562 556.285156 2385.351562 567.265625 L 2385.351562 577.535156 C 2385.351562 618.3125 2418.40625 651.386719 2459.183594 651.386719 L 2878.257812 651.386719 C 2919.035156 651.386719 2952.105469 618.3125 2952.105469 577.535156 L 2952.105469 567.265625 C 2952.105469 556.285156 2961 547.371094 2971.984375 547.371094 L 3179.972656 547.371094 C 3269.417969 547.371094 3341.914062 619.867188 3341.914062 709.3125 Z M 3179.972656 466.402344 L 2157.46875 466.402344 C 2023.527344 466.402344 1914.554688 575.375 1914.554688 709.3125 L 1914.554688 3034.753906 C 1914.554688 3168.695312 2023.527344 3277.667969 2157.46875 3277.667969 L 3179.972656 3277.667969 C 3313.910156 3277.667969 3422.882812 3168.695312 3422.882812 3034.753906 L 3422.882812 709.3125 C 3422.882812 575.375 3313.910156 466.402344 3179.972656 466.402344 " fill-opacity="1" fill-rule="nonzero"/></g><g clip-path="url(#24a1f55864)"><g clip-path="url(#5987f00a11)"><path fill="#ffde59" d="M 3140.140625 1347.257812 L 2725.875 1347.257812 L 2725.875 950.054688 L 3140.140625 950.054688 Z M 3140.140625 1347.257812 " fill-opacity="1" fill-rule="nonzero"/></g></g><g clip-path="url(#d97dd54eaf)"><g clip-path="url(#92470be5b8)"><path fill="#ffde59" d="M 2619.472656 1347.257812 L 2205.203125 1347.257812 L 2205.203125 950.054688 L 2619.472656 950.054688 Z M 2619.472656 1347.257812 " fill-opacity="1" fill-rule="nonzero"/></g></g><g clip-path="url(#6848fe2c32)"><g clip-path="url(#5835d46d87)"><path fill="#ffde59" d="M 3140.140625 1844.78125 L 2725.875 1844.78125 L 2725.875 1447.582031 L 3140.140625 1447.582031 Z M 3140.140625 1844.78125 " fill-opacity="1" fill-rule="nonzero"/></g></g><g clip-path="url(#da45af98a7)"><g clip-path="url(#affe1e80e8)"><path fill="#ffde59" d="M 2619.472656 1844.78125 L 2205.203125 1844.78125 L 2205.203125 1447.582031 L 2619.472656 1447.582031 Z M 2619.472656 1844.78125 " fill-opacity="1" fill-rule="nonzero"/></g></g><g clip-path="url(#312a9c95ed)"><g clip-path="url(#8e5dd12571)"><path fill="#3f0591" d="M 3038.523438 1043.140625 L 3038.523438 1254.191406 L 2827.472656 1254.191406 L 2827.472656 1043.140625 Z M 3038.523438 1043.140625 " fill-opacity="1" fill-rule="nonzero"/></g></g><g clip-path="url(#652dedca94)"><g clip-path="url(#62add0fdb0)"><path fill="#3f0591" d="M 3038.523438 1540.667969 L 3038.523438 1751.714844 L 2827.472656 1751.714844 L 2827.472656 1540.667969 Z M 3038.523438 1540.667969 " fill-opacity="1" fill-rule="nonzero"/></g></g><g clip-path="url(#3810bd50ef)"><g clip-path="url(#99d2bb841e)"><path fill="#3f0591" d="M 2517.851562 1043.140625 L 2517.851562 1254.191406 L 2306.800781 1254.191406 L 2306.800781 1043.140625 Z M 2517.851562 1043.140625 " fill-opacity="1" fill-rule="nonzero"/></g></g><g clip-path="url(#7371111a9e)"><g clip-path="url(#1b67f8ebfc)"><path fill="#3f0591" d="M 2517.851562 1540.667969 L 2517.851562 1751.714844 L 2306.800781 1751.714844 L 2306.800781 1540.667969 Z M 2517.851562 1540.667969 " fill-opacity="1" fill-rule="nonzero"/></g></g><g clip-path="url(#bfe4f2b3bd)"><g clip-path="url(#a88dfa23b3)"><path fill="#ffde59" d="M 3140.140625 2342.484375 L 2725.875 2342.484375 L 2725.875 1945.28125 L 3140.140625 1945.28125 Z M 3140.140625 2342.484375 " fill-opacity="1" fill-rule="nonzero"/></g></g><g clip-path="url(#79464d9f77)"><g clip-path="url(#47de9567fa)"><path fill="#ffde59" d="M 2619.472656 2342.484375 L 2205.203125 2342.484375 L 2205.203125 1945.28125 L 2619.472656 1945.28125 Z M 2619.472656 2342.484375 " fill-opacity="1" fill-rule="nonzero"/></g></g><g clip-path="url(#d1963d302f)"><g clip-path="url(#ab58b30161)"><path fill="#3f0591" d="M 3038.523438 2038.367188 L 3038.523438 2249.417969 L 2827.472656 2249.417969 L 2827.472656 2038.367188 Z M 3038.523438 2038.367188 " fill-opacity="1" fill-rule="nonzero"/></g></g><g clip-path="url(#a0231d34e8)"><g clip-path="url(#b83e38c8df)"><path fill="#3f0591" d="M 2517.851562 2038.367188 L 2517.851562 2249.417969 L 2306.800781 2249.417969 L 2306.800781 2038.367188 Z M 2517.851562 2038.367188 " fill-opacity="1" fill-rule="nonzero"/></g></g><g clip-path="url(#aec29c9248)"><g clip-path="url(#1370541246)"><path stroke-linecap="butt" transform="matrix(-0.833805, 0, 0, -0.833805, 3203.304695, 2938.635887)" fill="none" stroke-linejoin="miter" d="M 89.944415 -0.00099717 L 1192.434492 -0.00099717 C 1216.28974 -0.00099717 1239.165855 9.476451 1256.035995 26.346591 C 1272.901449 43.212045 1282.378898 66.092845 1282.378898 89.948094 L 1282.378898 393.020311 C 1282.378898 416.87556 1272.901449 439.75636 1256.035995 456.621814 C 1239.165855 473.491954 1216.28974 482.969402 1192.434492 482.969402 L 89.944415 482.969402 C 66.089166 482.969402 43.213051 473.491954 26.342912 456.621814 C 9.477457 439.75636 0.00000859047 416.87556 0.00000859047 393.020311 L 0.00000859047 89.948094 C 0.00000859047 66.092845 9.477457 43.212045 26.342912 26.346591 C 43.213051 9.476451 66.089166 -0.00099717 89.944415 -0.00099717 Z M 89.944415 -0.00099717 " stroke="#ffde59" stroke-width="71.959267" stroke-opacity="1" stroke-miterlimit="4"/></g></g><g clip-path="url(#4d508483d3)"><g clip-path="url(#a2f7131c6c)"><path fill="#3f0591" d="M 1222.992188 536.1875 L 2617.652344 536.1875 L 2617.652344 3221.996094 L 1222.992188 3221.996094 Z M 1222.992188 536.1875 " fill-opacity="1" fill-rule="nonzero"/></g></g><g fill="#ffde59" fill-opacity="1"><g transform="translate(1501.007501, 1883.879024)"><g><path d="M 130.859375 -150 C 122.253906 -150 113.054688 -150.816406 103.265625 -152.453125 C 93.472656 -154.085938 83.828125 -155.5 74.328125 -156.6875 C 64.835938 -157.875 55.710938 -158.242188 46.953125 -157.796875 C 38.203125 -157.347656 30.5625 -155.046875 24.03125 -150.890625 L 21.359375 -150.890625 L 21.359375 -212.328125 C 26.703125 -217.367188 33.53125 -220.554688 41.84375 -221.890625 C 50.15625 -223.222656 59.28125 -223.664062 69.21875 -223.21875 C 79.15625 -222.78125 89.539062 -221.742188 100.375 -220.109375 C 111.207031 -218.484375 121.742188 -217.222656 131.984375 -216.328125 C 142.222656 -215.441406 151.789062 -215.296875 160.6875 -215.890625 C 169.59375 -216.484375 177.160156 -218.851562 183.390625 -223 L 186.0625 -223 C 186.945312 -213.207031 186.273438 -204.082031 184.046875 -195.625 C 181.828125 -187.175781 178.414062 -179.316406 173.8125 -172.046875 C 169.21875 -164.773438 163.65625 -157.945312 157.125 -151.5625 C 150.601562 -145.1875 143.628906 -139.175781 136.203125 -133.53125 C 138.578125 -135.3125 139.765625 -137.835938 139.765625 -141.109375 C 139.765625 -143.484375 138.875 -145.554688 137.09375 -147.328125 C 135.3125 -149.109375 133.234375 -150 130.859375 -150 Z M 67.21875 -70.78125 C 75.820312 -70.78125 85.019531 -69.960938 94.8125 -68.328125 C 104.601562 -66.691406 114.242188 -65.28125 123.734375 -64.09375 C 133.234375 -62.90625 142.285156 -62.535156 150.890625 -62.984375 C 159.503906 -63.429688 167.222656 -65.878906 174.046875 -70.328125 L 176.71875 -70.328125 L 176.71875 -8.453125 C 171.375 -3.410156 164.546875 -0.222656 156.234375 1.109375 C 147.929688 2.441406 138.734375 2.738281 128.640625 2 C 118.546875 1.257812 108.082031 0 97.25 -1.78125 C 86.425781 -3.5625 75.894531 -4.96875 65.65625 -6 C 55.414062 -7.039062 45.84375 -7.265625 36.9375 -6.671875 C 28.039062 -6.078125 20.625 -3.707031 14.6875 0.4375 L 12.015625 0.4375 C 9.347656 -22.707031 17.210938 -44.070312 35.609375 -63.65625 C 39.460938 -67.8125 43.539062 -71.742188 47.84375 -75.453125 C 52.15625 -79.160156 56.832031 -82.941406 61.875 -86.796875 C 59.5 -85.015625 58.3125 -82.640625 58.3125 -79.671875 C 58.3125 -77.296875 59.203125 -75.21875 60.984375 -73.4375 C 62.765625 -71.664062 64.84375 -70.78125 67.21875 -70.78125 Z M 67.21875 -70.78125 "/></g></g></g><g fill="#ffde59" fill-opacity="1"><g transform="translate(1667.480295, 1883.879024)"><g><path d="M 151.34375 -26.265625 C 159.945312 -26.265625 168.398438 -28.414062 176.703125 -32.71875 C 185.015625 -37.019531 192.289062 -43.03125 198.53125 -50.75 C 189.625 -34.71875 177.601562 -21.878906 162.46875 -12.234375 C 147.332031 -2.597656 130.710938 2.21875 112.609375 2.21875 C 98.671875 2.21875 85.539062 -0.742188 73.21875 -6.671875 C 60.90625 -12.609375 50.148438 -20.617188 40.953125 -30.703125 C 31.753906 -40.796875 24.484375 -52.664062 19.140625 -66.3125 C 13.796875 -79.96875 11.125 -94.660156 11.125 -110.390625 C 11.125 -125.816406 13.796875 -140.429688 19.140625 -154.234375 C 24.484375 -168.035156 31.753906 -179.976562 40.953125 -190.0625 C 50.148438 -200.15625 60.90625 -208.164062 73.21875 -214.09375 C 85.539062 -220.03125 98.671875 -223 112.609375 -223 C 109.648438 -222.414062 106.164062 -219.671875 102.15625 -214.765625 C 98.144531 -209.867188 94.359375 -203.414062 90.796875 -195.40625 C 87.242188 -187.394531 84.203125 -178.117188 81.671875 -167.578125 C 79.148438 -157.046875 77.890625 -145.847656 77.890625 -133.984375 C 77.890625 -119.140625 79.816406 -105.191406 83.671875 -92.140625 C 87.535156 -79.085938 92.804688 -67.660156 99.484375 -57.859375 C 106.160156 -48.066406 113.945312 -40.351562 122.84375 -34.71875 C 131.75 -29.082031 141.25 -26.265625 151.34375 -26.265625 Z M 146 -146.890625 C 146 -155.796875 145.253906 -164.472656 143.765625 -172.921875 C 142.285156 -181.378906 140.359375 -189.019531 137.984375 -195.84375 C 135.609375 -202.675781 132.710938 -208.46875 129.296875 -213.21875 C 125.890625 -217.96875 122.257812 -221.226562 118.40625 -223 C 129.675781 -222.113281 140.207031 -219.296875 150 -214.546875 C 159.800781 -209.796875 168.554688 -203.5625 176.265625 -195.84375 C 183.984375 -188.132812 190.4375 -179.085938 195.625 -168.703125 C 200.820312 -158.316406 204.609375 -147.039062 206.984375 -134.875 L 133.53125 -134.875 C 136.800781 -134.875 139.695312 -136.0625 142.21875 -138.4375 C 144.738281 -140.8125 146 -143.628906 146 -146.890625 Z M 146 -146.890625 "/></g></g></g><g fill="#ffde59" fill-opacity="1"><g transform="translate(1854.428455, 1883.879024)"><g><path d="M 96.140625 -24.484375 C 96.140625 -19.140625 97.921875 -13.941406 101.484375 -8.890625 C 105.046875 -3.847656 109.347656 -0.882812 114.390625 0 L 11.125 0 C 16.164062 -0.882812 20.46875 -3.847656 24.03125 -8.890625 C 27.59375 -13.941406 29.375 -19.140625 29.375 -24.484375 L 29.375 -275.984375 C 29.375 -281.316406 27.59375 -286.503906 24.03125 -291.546875 C 20.46875 -296.597656 16.164062 -299.566406 11.125 -300.453125 L 87.25 -311.59375 L 88.578125 -311.59375 C 90.953125 -311.59375 92.804688 -310.847656 94.140625 -309.359375 C 95.472656 -307.878906 96.140625 -305.953125 96.140625 -303.578125 Z M 96.140625 -24.484375 "/></g></g></g><g fill="#ffde59" fill-opacity="1"><g transform="translate(1948.79225, 1883.879024)"><g><path d="M 59.203125 -125.078125 C 49.703125 -125.078125 41.613281 -128.414062 34.9375 -135.09375 C 28.257812 -141.769531 24.921875 -149.859375 24.921875 -159.359375 C 24.921875 -166.773438 27.144531 -174.039062 31.59375 -181.15625 C 36.050781 -188.28125 41.835938 -194.660156 48.953125 -200.296875 C 56.078125 -205.941406 64.09375 -210.691406 73 -214.546875 C 81.90625 -218.410156 90.804688 -220.785156 99.703125 -221.671875 C 91.691406 -220.484375 85.535156 -218.109375 81.234375 -214.546875 C 76.929688 -210.984375 74.78125 -206.832031 74.78125 -202.09375 C 74.78125 -198.820312 75.671875 -195.628906 77.453125 -192.515625 C 79.234375 -189.398438 81.457031 -186.210938 84.125 -182.953125 C 90.65625 -177.015625 93.921875 -169.148438 93.921875 -159.359375 C 93.921875 -149.859375 90.507812 -141.769531 83.6875 -135.09375 C 76.863281 -128.414062 68.703125 -125.078125 59.203125 -125.078125 Z M 193.625 -33.390625 C 193.625 -28.046875 195.40625 -22.847656 198.96875 -17.796875 C 202.53125 -12.753906 206.832031 -9.789062 211.875 -8.90625 L 135.3125 2.21875 L 134.421875 2.21875 C 132.046875 2.21875 130.117188 1.476562 128.640625 0 C 127.160156 -1.476562 126.421875 -3.40625 126.421875 -5.78125 L 126.421875 -134.421875 C 122.859375 -132.640625 118.476562 -130.414062 113.28125 -127.75 C 108.09375 -125.082031 103.050781 -121.519531 98.15625 -117.0625 C 93.257812 -112.613281 88.953125 -106.976562 85.234375 -100.15625 C 81.523438 -93.332031 79.226562 -84.722656 78.34375 -74.328125 C 77.445312 -63.648438 78.257812 -54.226562 80.78125 -46.0625 C 83.3125 -37.90625 86.953125 -31.304688 91.703125 -26.265625 C 96.441406 -21.210938 102.078125 -17.648438 108.609375 -15.578125 C 115.140625 -13.503906 120.78125 -13.65625 125.53125 -16.03125 C 120.1875 -12.164062 113.0625 -8.15625 104.15625 -4 C 95.257812 0.144531 84.726562 2.21875 72.5625 2.21875 C 58.613281 2.21875 46 -1.488281 34.71875 -8.90625 C 23.445312 -16.320312 16.175781 -26.257812 12.90625 -38.71875 C 9.34375 -51.476562 10.601562 -63.867188 16.6875 -75.890625 C 22.769531 -87.910156 32.046875 -97.78125 44.515625 -105.5 C 51.046875 -109.351562 58.984375 -113.132812 68.328125 -116.84375 C 77.671875 -120.550781 87.609375 -124.1875 98.140625 -127.75 C 108.679688 -131.3125 119.144531 -134.875 129.53125 -138.4375 C 139.914062 -142 149.335938 -145.851562 157.796875 -150 C 166.253906 -154.15625 173.226562 -158.609375 178.71875 -163.359375 C 184.207031 -168.109375 187.097656 -173.453125 187.390625 -179.390625 C 187.691406 -182.953125 187.023438 -186.734375 185.390625 -190.734375 C 183.765625 -194.742188 181.46875 -198.378906 178.5 -201.640625 C 186.507812 -193.921875 191.40625 -185.019531 193.1875 -174.9375 C 193.476562 -173.75 193.625 -172.5625 193.625 -171.375 C 193.625 -170.1875 193.625 -169 193.625 -167.8125 Z M 193.625 -33.390625 "/></g></g></g><g fill="#ffde59" fill-opacity="1"><g transform="translate(2140.636701, 1883.879024)"><g><path d="M 153.125 -227.453125 C 162.613281 -226.859375 170.769531 -223.367188 177.59375 -216.984375 C 184.425781 -210.609375 187.84375 -202.675781 187.84375 -193.1875 C 187.84375 -183.6875 184.425781 -175.523438 177.59375 -168.703125 C 170.769531 -161.878906 162.613281 -158.46875 153.125 -158.46875 C 148.375 -158.46875 143.921875 -159.359375 139.765625 -161.140625 C 135.609375 -162.921875 131.972656 -165.367188 128.859375 -168.484375 C 125.742188 -171.597656 123.296875 -175.304688 121.515625 -179.609375 C 119.734375 -183.910156 118.84375 -188.4375 118.84375 -193.1875 C 118.84375 -194.96875 119.140625 -197.34375 119.734375 -200.3125 C 121.222656 -206.238281 120.035156 -210.316406 116.171875 -212.546875 C 112.316406 -214.773438 106.085938 -213.8125 97.484375 -209.65625 C 101.335938 -211.726562 105.640625 -213.800781 110.390625 -215.875 C 115.140625 -217.957031 119.960938 -219.890625 124.859375 -221.671875 C 129.753906 -223.453125 134.648438 -224.9375 139.546875 -226.125 C 144.441406 -227.3125 148.96875 -227.753906 153.125 -227.453125 Z M 96.140625 -24.484375 C 96.140625 -19.140625 97.921875 -13.941406 101.484375 -8.890625 C 105.046875 -3.847656 109.347656 -0.882812 114.390625 0 L 11.125 0 C 16.164062 -0.882812 20.46875 -3.847656 24.03125 -8.890625 C 27.59375 -13.941406 29.375 -19.140625 29.375 -24.484375 L 29.375 -182.953125 C 29.375 -188.585938 27.59375 -193.851562 24.03125 -198.75 C 20.46875 -203.644531 16.164062 -206.535156 11.125 -207.421875 L 87.25 -218.5625 L 88.578125 -218.5625 C 93.617188 -218.5625 96.140625 -216.035156 96.140625 -210.984375 Z M 96.140625 -24.484375 "/></g></g></g><g clip-path="url(#0ac01b57c9)"><path fill="#ffde59" d="M 2364.84375 1869.945312 C 2329.714844 1876.410156 2324.472656 1881.652344 2318.007812 1916.785156 C 2311.539062 1881.652344 2306.296875 1876.410156 2271.167969 1869.945312 C 2306.296875 1863.476562 2311.539062 1858.234375 2318.007812 1823.105469 C 2324.472656 1858.234375 2329.714844 1863.476562 2364.84375 1869.945312 Z M 2364.84375 1869.945312 " fill-opacity="1" fill-rule="nonzero"/></g><g clip-path="url(#041d0419de)"><path fill="#ffde59" d="M 2589.566406 3034.753906 C 2589.566406 3124.183594 2517.070312 3196.695312 2427.628906 3196.695312 L 1405.121094 3196.695312 C 1315.675781 3196.695312 1243.179688 3124.183594 1243.179688 3034.753906 L 1243.179688 709.3125 C 1243.179688 619.867188 1315.675781 547.371094 1405.121094 547.371094 L 1613.109375 547.371094 C 1624.09375 547.371094 1633.003906 556.285156 1633.003906 567.265625 L 1633.003906 577.535156 C 1633.003906 618.3125 1666.058594 651.386719 1706.839844 651.386719 L 2125.910156 651.386719 C 2166.6875 651.386719 2199.761719 618.3125 2199.761719 577.535156 L 2199.761719 567.265625 C 2199.761719 556.285156 2208.65625 547.371094 2219.636719 547.371094 L 2427.628906 547.371094 C 2517.070312 547.371094 2589.566406 619.867188 2589.566406 709.3125 Z M 2427.628906 466.402344 L 1405.121094 466.402344 C 1271.183594 466.402344 1162.210938 575.375 1162.210938 709.3125 L 1162.210938 3034.753906 C 1162.210938 3168.695312 1271.183594 3277.667969 1405.121094 3277.667969 L 2427.628906 3277.667969 C 2561.566406 3277.667969 2670.539062 3168.695312 2670.539062 3034.753906 L 2670.539062 709.3125 C 2670.539062 575.375 2561.566406 466.402344 2427.628906 466.402344 " fill-opacity="1" fill-rule="nonzero"/></g><g clip-path="url(#6a1359f79a)"><g clip-path="url(#1726d167f6)"><path fill="#ffde59" d="M 2153.289062 1966.75 L 2153.289062 3283.59375 L 373.488281 3283.59375 L 373.488281 1966.75 Z M 2153.289062 1966.75 " fill-opacity="1" fill-rule="nonzero"/></g></g><g clip-path="url(#269d41af2c)"><g clip-path="url(#98f0240802)"><path stroke-linecap="butt" transform="matrix(0, 0.833805, -0.833805, 0, 2153.287636, 1966.751952)" fill="none" stroke-linejoin="miter" d="M 89.946754 -0.00171108 L 1489.362609 -0.00171108 C 1513.217858 -0.00171108 1536.093975 9.475738 1552.964115 26.345878 C 1569.834256 43.216019 1579.30702 66.092135 1579.30702 89.947385 L 1579.30702 2042.784422 C 1579.30702 2066.639672 1569.834256 2089.520473 1552.964115 2106.390613 C 1536.093975 2123.256069 1513.217858 2132.733518 1489.362609 2132.733518 L 89.946754 2132.733518 C 66.091504 2132.733518 43.215388 2123.256069 26.345248 2106.390613 C 9.475107 2089.520473 -0.00234165 2066.639672 -0.00234165 2042.784422 L -0.00234165 89.947385 C -0.00234165 66.092135 9.475107 43.216019 26.345248 26.345878 C 43.215388 9.475738 66.091504 -0.00171108 89.946754 -0.00171108 Z M 89.946754 -0.00171108 " stroke="#3f0591" stroke-width="71.959267" stroke-opacity="1" stroke-miterlimit="4"/></g></g><g clip-path="url(#2124d5eefb)"><g clip-path="url(#88e1eb911c)"><path fill="#3f0591" d="M 934.820312 2110.304688 L 934.820312 2566.566406 L 497.351562 2566.566406 L 497.351562 2110.304688 Z M 934.820312 2110.304688 " fill-opacity="1" fill-rule="nonzero"/></g></g><g clip-path="url(#d3a8353dcf)"><g clip-path="url(#f720cc7485)"><path fill="#3f0591" d="M 934.820312 2683.757812 L 934.820312 3140.019531 L 497.351562 3140.019531 L 497.351562 2683.757812 Z M 934.820312 2683.757812 " fill-opacity="1" fill-rule="nonzero"/></g></g><g clip-path="url(#b2b5d7e7b8)"><g clip-path="url(#77bc4dee20)"><path fill="#3f0591" d="M 1482.78125 2110.304688 L 1482.78125 2566.566406 L 1045.316406 2566.566406 L 1045.316406 2110.304688 Z M 1482.78125 2110.304688 " fill-opacity="1" fill-rule="nonzero"/></g></g><g clip-path="url(#86aeefbda3)"><g clip-path="url(#a888c10074)"><path fill="#3f0591" d="M 1482.78125 2683.757812 L 1482.78125 3140.019531 L 1045.316406 3140.019531 L 1045.316406 2683.757812 Z M 1482.78125 2683.757812 " fill-opacity="1" fill-rule="nonzero"/></g></g><g clip-path="url(#94769fd3bd)"><g clip-path="url(#8a15749ce6)"><path fill="#ffde59" d="M 599.867188 2222.226562 L 832.3125 2222.226562 L 832.3125 2454.671875 L 599.867188 2454.671875 Z M 599.867188 2222.226562 " fill-opacity="1" fill-rule="nonzero"/></g></g><g clip-path="url(#c7d58f693d)"><g clip-path="url(#d49643a239)"><path fill="#ffde59" d="M 1147.832031 2222.226562 L 1380.277344 2222.226562 L 1380.277344 2454.671875 L 1147.832031 2454.671875 Z M 1147.832031 2222.226562 " fill-opacity="1" fill-rule="nonzero"/></g></g><g clip-path="url(#85055b4f73)"><g clip-path="url(#bdfdf6cf6e)"><path fill="#ffde59" d="M 599.867188 2795.679688 L 832.3125 2795.679688 L 832.3125 3028.125 L 599.867188 3028.125 Z M 599.867188 2795.679688 " fill-opacity="1" fill-rule="nonzero"/></g></g><g clip-path="url(#4fab9fa2dc)"><g clip-path="url(#e04d44b773)"><path fill="#ffde59" d="M 1147.832031 2795.679688 L 1380.277344 2795.679688 L 1380.277344 3028.125 L 1147.832031 3028.125 Z M 1147.832031 2795.679688 " fill-opacity="1" fill-rule="nonzero"/></g></g><g clip-path="url(#d2329c976c)"><g clip-path="url(#9efae5a821)"><path fill="#3f0591" d="M 2030.933594 2110.304688 L 2030.933594 2566.566406 L 1593.46875 2566.566406 L 1593.46875 2110.304688 Z M 2030.933594 2110.304688 " fill-opacity="1" fill-rule="nonzero"/></g></g><g clip-path="url(#5927202022)"><g clip-path="url(#b70706b646)"><path fill="#3f0591" d="M 2030.933594 2683.757812 L 2030.933594 3140.019531 L 1593.46875 3140.019531 L 1593.46875 2683.757812 Z M 2030.933594 2683.757812 " fill-opacity="1" fill-rule="nonzero"/></g></g><g clip-path="url(#4df941fd86)"><g clip-path="url(#4dd9c78a8b)"><path fill="#ffde59" d="M 1695.984375 2222.226562 L 1928.429688 2222.226562 L 1928.429688 2454.671875 L 1695.984375 2454.671875 Z M 1695.984375 2222.226562 " fill-opacity="1" fill-rule="nonzero"/></g></g><g clip-path="url(#8236988757)"><g clip-path="url(#be95bf24f9)"><path fill="#ffde59" d="M 1695.984375 2795.679688 L 1928.429688 2795.679688 L 1928.429688 3028.125 L 1695.984375 3028.125 Z M 1695.984375 2795.679688 " fill-opacity="1" fill-rule="nonzero"/></g></g></svg>