<svg width="25" height="25" viewBox="0 0 25 25" fill="none" xmlns="http://www.w3.org/2000/svg">
<path d="M8.12492 2.08325H16.8749C20.2083 2.08325 22.9166 4.79159 22.9166 8.12492V16.8749C22.9166 18.4773 22.2801 20.014 21.147 21.147C20.014 22.2801 18.4773 22.9166 16.8749 22.9166H8.12492C4.79159 22.9166 2.08325 20.2083 2.08325 16.8749V8.12492C2.08325 6.52257 2.71978 4.98585 3.85282 3.85282C4.98585 2.71978 6.52257 2.08325 8.12492 2.08325ZM7.91658 4.16659C6.92202 4.16659 5.9682 4.56167 5.26493 5.26493C4.56167 5.9682 4.16659 6.92202 4.16659 7.91658V17.0833C4.16659 19.1562 5.84367 20.8333 7.91658 20.8333H17.0833C18.0778 20.8333 19.0316 20.4382 19.7349 19.7349C20.4382 19.0316 20.8333 18.0778 20.8333 17.0833V7.91658C20.8333 5.84367 19.1562 4.16659 17.0833 4.16659H7.91658ZM17.9687 5.72909C18.314 5.72909 18.6452 5.86627 18.8894 6.11046C19.1336 6.35464 19.2708 6.68583 19.2708 7.03117C19.2708 7.3765 19.1336 7.70769 18.8894 7.95188C18.6452 8.19607 18.314 8.33325 17.9687 8.33325C17.6233 8.33325 17.2921 8.19607 17.048 7.95188C16.8038 7.70769 16.6666 7.3765 16.6666 7.03117C16.6666 6.68583 16.8038 6.35464 17.048 6.11046C17.2921 5.86627 17.6233 5.72909 17.9687 5.72909ZM12.4999 7.29159C13.8813 7.29159 15.206 7.84032 16.1828 8.81707C17.1595 9.79382 17.7083 11.1186 17.7083 12.4999C17.7083 13.8813 17.1595 15.206 16.1828 16.1828C15.206 17.1595 13.8813 17.7083 12.4999 17.7083C11.1186 17.7083 9.79382 17.1595 8.81707 16.1828C7.84032 15.206 7.29159 13.8813 7.29159 12.4999C7.29159 11.1186 7.84032 9.79382 8.81707 8.81707C9.79382 7.84032 11.1186 7.29159 12.4999 7.29159ZM12.4999 9.37492C11.6711 9.37492 10.8763 9.70416 10.2902 10.2902C9.70416 10.8763 9.37492 11.6711 9.37492 12.4999C9.37492 13.3287 9.70416 14.1236 10.2902 14.7096C10.8763 15.2957 11.6711 15.6249 12.4999 15.6249C13.3287 15.6249 14.1236 15.2957 14.7096 14.7096C15.2957 14.1236 15.6249 13.3287 15.6249 12.4999C15.6249 11.6711 15.2957 10.8763 14.7096 10.2902C14.1236 9.70416 13.3287 9.37492 12.4999 9.37492Z" fill="#3F0591"/>
</svg>
