<svg width="50" height="50" viewBox="0 0 50 50" fill="none" xmlns="http://www.w3.org/2000/svg">
<path d="M43.75 27.0834V42.5709C43.75 42.9906 43.6654 43.406 43.5014 43.7923C43.3374 44.1785 43.0972 44.5278 42.7953 44.8193C42.4933 45.1107 42.1358 45.3384 41.7439 45.4886C41.3521 45.6389 40.934 45.7087 40.5146 45.6939L40.2375 45.6709L25 43.7668V27.0834H43.75ZM20.8333 27.0834V43.2459L9.9 41.8793C8.89209 41.7533 7.96491 41.2635 7.29276 40.502C6.6206 39.7405 6.24978 38.7596 6.25 37.7439V27.0834H20.8333ZM40.2375 4.32928C40.6539 4.27726 41.0765 4.30964 41.4801 4.42449C41.8838 4.53934 42.2601 4.7343 42.5868 4.99775C42.9134 5.2612 43.1836 5.58774 43.3813 5.95789C43.579 6.32804 43.7002 6.73422 43.7375 7.1522L43.75 7.42928V22.9168H25V6.23345L40.2375 4.32928ZM20.8333 6.75428V22.9168H6.25V12.2564C6.24978 11.2406 6.6206 10.2598 7.29276 9.49823C7.96491 8.73669 8.89209 8.2469 9.9 8.12095L20.8333 6.75428Z" fill="#3F0591"/>
</svg>
