<svg xmlns="http://www.w3.org/2000/svg" xmlns:xlink="http://www.w3.org/1999/xlink" width="500" zoomAndPan="magnify" viewBox="0 0 375 374.999991" height="500" preserveAspectRatio="xMidYMid meet" version="1.0"><defs><g/><clipPath id="46fad6a9b8"><path d="M 279.6875 190.035156 L 305.9375 190.035156 L 305.9375 216.285156 L 279.6875 216.285156 Z M 279.6875 190.035156 " clip-rule="nonzero"/></clipPath></defs><g fill="#ffde59" fill-opacity="1"><g transform="translate(65.795839, 206.9144)"><g><path d="M 36.34375 -41.65625 C 33.957031 -41.65625 31.398438 -41.878906 28.671875 -42.328125 C 25.953125 -42.785156 23.273438 -43.179688 20.640625 -43.515625 C 18.003906 -43.847656 15.46875 -43.953125 13.03125 -43.828125 C 10.601562 -43.703125 8.484375 -43.0625 6.671875 -41.90625 L 5.9375 -41.90625 L 5.9375 -58.96875 C 7.414062 -60.375 9.304688 -61.257812 11.609375 -61.625 C 13.921875 -62 16.457031 -62.125 19.21875 -62 C 21.976562 -61.875 24.863281 -61.582031 27.875 -61.125 C 30.882812 -60.675781 33.8125 -60.328125 36.65625 -60.078125 C 39.5 -59.828125 42.15625 -59.785156 44.625 -59.953125 C 47.101562 -60.117188 49.207031 -60.78125 50.9375 -61.9375 L 51.671875 -61.9375 C 51.921875 -59.21875 51.734375 -56.679688 51.109375 -54.328125 C 50.492188 -51.984375 49.546875 -49.800781 48.265625 -47.78125 C 46.992188 -45.757812 45.453125 -43.863281 43.640625 -42.09375 C 41.828125 -40.320312 39.890625 -38.65625 37.828125 -37.09375 C 38.484375 -37.582031 38.8125 -38.28125 38.8125 -39.1875 C 38.8125 -39.84375 38.5625 -40.414062 38.0625 -40.90625 C 37.570312 -41.40625 37 -41.65625 36.34375 -41.65625 Z M 18.671875 -19.65625 C 21.054688 -19.65625 23.609375 -19.425781 26.328125 -18.96875 C 29.046875 -18.519531 31.722656 -18.128906 34.359375 -17.796875 C 37.003906 -17.472656 39.519531 -17.367188 41.90625 -17.484375 C 44.300781 -17.609375 46.445312 -18.289062 48.34375 -19.53125 L 49.078125 -19.53125 L 49.078125 -2.34375 C 47.597656 -0.945312 45.703125 -0.0664062 43.390625 0.296875 C 41.085938 0.671875 38.535156 0.753906 35.734375 0.546875 C 32.929688 0.347656 30.023438 0.00390625 27.015625 -0.484375 C 24.003906 -0.984375 21.078125 -1.378906 18.234375 -1.671875 C 15.390625 -1.960938 12.726562 -2.023438 10.25 -1.859375 C 7.78125 -1.691406 5.722656 -1.03125 4.078125 0.125 L 3.34375 0.125 C 2.59375 -6.300781 4.773438 -12.234375 9.890625 -17.671875 C 10.960938 -18.828125 12.09375 -19.921875 13.28125 -20.953125 C 14.476562 -21.984375 15.78125 -23.035156 17.1875 -24.109375 C 16.519531 -23.609375 16.1875 -22.945312 16.1875 -22.125 C 16.1875 -21.46875 16.429688 -20.890625 16.921875 -20.390625 C 17.421875 -19.898438 18.003906 -19.65625 18.671875 -19.65625 Z M 18.671875 -19.65625 "/></g></g></g><g fill="#ffde59" fill-opacity="1"><g transform="translate(112.029389, 206.9144)"><g><path d="M 42.03125 -7.296875 C 44.425781 -7.296875 46.773438 -7.890625 49.078125 -9.078125 C 51.390625 -10.273438 53.410156 -11.945312 55.140625 -14.09375 C 52.660156 -9.644531 49.316406 -6.078125 45.109375 -3.390625 C 40.910156 -0.710938 36.300781 0.625 31.28125 0.625 C 27.40625 0.625 23.753906 -0.195312 20.328125 -1.84375 C 16.910156 -3.5 13.925781 -5.726562 11.375 -8.53125 C 8.820312 -11.332031 6.800781 -14.628906 5.3125 -18.421875 C 3.832031 -22.210938 3.09375 -26.289062 3.09375 -30.65625 C 3.09375 -34.945312 3.832031 -39.003906 5.3125 -42.828125 C 6.800781 -46.660156 8.820312 -49.976562 11.375 -52.78125 C 13.925781 -55.582031 16.910156 -57.804688 20.328125 -59.453125 C 23.753906 -61.109375 27.40625 -61.9375 31.28125 -61.9375 C 30.457031 -61.769531 29.488281 -61.003906 28.375 -59.640625 C 27.257812 -58.285156 26.207031 -56.492188 25.21875 -54.265625 C 24.226562 -52.046875 23.382812 -49.472656 22.6875 -46.546875 C 21.988281 -43.617188 21.640625 -40.507812 21.640625 -37.21875 C 21.640625 -33.09375 22.171875 -29.21875 23.234375 -25.59375 C 24.304688 -21.96875 25.769531 -18.789062 27.625 -16.0625 C 29.476562 -13.34375 31.640625 -11.203125 34.109375 -9.640625 C 36.585938 -8.078125 39.226562 -7.296875 42.03125 -7.296875 Z M 40.546875 -40.796875 C 40.546875 -43.265625 40.335938 -45.671875 39.921875 -48.015625 C 39.515625 -50.367188 38.976562 -52.492188 38.3125 -54.390625 C 37.65625 -56.285156 36.851562 -57.890625 35.90625 -59.203125 C 34.957031 -60.523438 33.953125 -61.4375 32.890625 -61.9375 C 36.015625 -61.6875 38.9375 -60.898438 41.65625 -59.578125 C 44.375 -58.265625 46.804688 -56.535156 48.953125 -54.390625 C 51.097656 -52.253906 52.890625 -49.742188 54.328125 -46.859375 C 55.773438 -43.972656 56.828125 -40.835938 57.484375 -37.453125 L 37.09375 -37.453125 C 38 -37.453125 38.800781 -37.78125 39.5 -38.4375 C 40.195312 -39.101562 40.546875 -39.890625 40.546875 -40.796875 Z M 40.546875 -40.796875 "/></g></g></g><g fill="#ffde59" fill-opacity="1"><g transform="translate(163.949447, 206.9144)"><g><path d="M 26.703125 -6.796875 C 26.703125 -5.316406 27.195312 -3.875 28.1875 -2.46875 C 29.175781 -1.070312 30.367188 -0.25 31.765625 0 L 3.09375 0 C 4.488281 -0.25 5.679688 -1.070312 6.671875 -2.46875 C 7.660156 -3.875 8.15625 -5.316406 8.15625 -6.796875 L 8.15625 -76.640625 C 8.15625 -78.128906 7.660156 -79.570312 6.671875 -80.96875 C 5.679688 -82.375 4.488281 -83.203125 3.09375 -83.453125 L 24.234375 -86.53125 L 24.59375 -86.53125 C 25.257812 -86.53125 25.773438 -86.320312 26.140625 -85.90625 C 26.515625 -85.5 26.703125 -84.96875 26.703125 -84.3125 Z M 26.703125 -6.796875 "/></g></g></g><g fill="#ffde59" fill-opacity="1"><g transform="translate(190.156571, 206.9144)"><g><path d="M 16.4375 -34.734375 C 13.800781 -34.734375 11.554688 -35.660156 9.703125 -37.515625 C 7.847656 -39.367188 6.921875 -41.613281 6.921875 -44.25 C 6.921875 -46.3125 7.535156 -48.332031 8.765625 -50.3125 C 10.003906 -52.289062 11.613281 -54.0625 13.59375 -55.625 C 15.570312 -57.195312 17.796875 -58.515625 20.265625 -59.578125 C 22.742188 -60.648438 25.21875 -61.3125 27.6875 -61.5625 C 25.46875 -61.238281 23.757812 -60.582031 22.5625 -59.59375 C 21.363281 -58.601562 20.765625 -57.445312 20.765625 -56.125 C 20.765625 -55.21875 21.007812 -54.332031 21.5 -53.46875 C 22 -52.601562 22.617188 -51.71875 23.359375 -50.8125 C 25.171875 -49.164062 26.078125 -46.976562 26.078125 -44.25 C 26.078125 -41.613281 25.128906 -39.367188 23.234375 -37.515625 C 21.335938 -35.660156 19.070312 -34.734375 16.4375 -34.734375 Z M 53.78125 -9.265625 C 53.78125 -7.785156 54.273438 -6.34375 55.265625 -4.9375 C 56.253906 -3.539062 57.445312 -2.71875 58.84375 -2.46875 L 37.578125 0.625 L 37.328125 0.625 C 36.671875 0.625 36.132812 0.414062 35.71875 0 C 35.3125 -0.414062 35.109375 -0.953125 35.109375 -1.609375 L 35.109375 -37.328125 C 34.117188 -36.835938 32.898438 -36.222656 31.453125 -35.484375 C 30.015625 -34.742188 28.613281 -33.753906 27.25 -32.515625 C 25.894531 -31.273438 24.703125 -29.707031 23.671875 -27.8125 C 22.640625 -25.914062 22.003906 -23.523438 21.765625 -20.640625 C 21.515625 -17.671875 21.738281 -15.050781 22.4375 -12.78125 C 23.132812 -10.519531 24.144531 -8.691406 25.46875 -7.296875 C 26.78125 -5.890625 28.34375 -4.898438 30.15625 -4.328125 C 31.976562 -3.753906 33.546875 -3.796875 34.859375 -4.453125 C 33.378906 -3.378906 31.398438 -2.265625 28.921875 -1.109375 C 26.453125 0.046875 23.53125 0.625 20.15625 0.625 C 16.28125 0.625 12.773438 -0.40625 9.640625 -2.46875 C 6.503906 -4.53125 4.484375 -7.289062 3.578125 -10.75 C 2.597656 -14.300781 2.953125 -17.742188 4.640625 -21.078125 C 6.328125 -24.410156 8.898438 -27.148438 12.359375 -29.296875 C 14.171875 -30.367188 16.375 -31.421875 18.96875 -32.453125 C 21.570312 -33.484375 24.332031 -34.492188 27.25 -35.484375 C 30.175781 -36.472656 33.082031 -37.460938 35.96875 -38.453125 C 38.851562 -39.441406 41.46875 -40.507812 43.8125 -41.65625 C 46.164062 -42.8125 48.101562 -44.046875 49.625 -45.359375 C 51.15625 -46.679688 51.960938 -48.171875 52.046875 -49.828125 C 52.128906 -50.804688 51.941406 -51.851562 51.484375 -52.96875 C 51.035156 -54.082031 50.398438 -55.09375 49.578125 -56 C 51.796875 -53.851562 53.15625 -51.378906 53.65625 -48.578125 C 53.738281 -48.253906 53.78125 -47.925781 53.78125 -47.59375 C 53.78125 -47.257812 53.78125 -46.929688 53.78125 -46.609375 Z M 53.78125 -9.265625 "/></g></g></g><g fill="#ffde59" fill-opacity="1"><g transform="translate(243.436448, 206.9144)"><g><path d="M 42.53125 -63.171875 C 45.164062 -63.003906 47.429688 -62.035156 49.328125 -60.265625 C 51.222656 -58.492188 52.171875 -56.289062 52.171875 -53.65625 C 52.171875 -51.019531 51.222656 -48.753906 49.328125 -46.859375 C 47.429688 -44.960938 45.164062 -44.015625 42.53125 -44.015625 C 41.207031 -44.015625 39.96875 -44.257812 38.8125 -44.75 C 37.664062 -45.25 36.65625 -45.929688 35.78125 -46.796875 C 34.914062 -47.660156 34.238281 -48.6875 33.75 -49.875 C 33.257812 -51.070312 33.015625 -52.332031 33.015625 -53.65625 C 33.015625 -54.144531 33.09375 -54.800781 33.25 -55.625 C 33.664062 -57.28125 33.335938 -58.414062 32.265625 -59.03125 C 31.191406 -59.644531 29.460938 -59.378906 27.078125 -58.234375 C 28.148438 -58.804688 29.34375 -59.378906 30.65625 -59.953125 C 31.976562 -60.535156 33.316406 -61.070312 34.671875 -61.5625 C 36.035156 -62.0625 37.394531 -62.472656 38.75 -62.796875 C 40.113281 -63.128906 41.375 -63.253906 42.53125 -63.171875 Z M 26.703125 -6.796875 C 26.703125 -5.316406 27.195312 -3.875 28.1875 -2.46875 C 29.175781 -1.070312 30.367188 -0.25 31.765625 0 L 3.09375 0 C 4.488281 -0.25 5.679688 -1.070312 6.671875 -2.46875 C 7.660156 -3.875 8.15625 -5.316406 8.15625 -6.796875 L 8.15625 -50.8125 C 8.15625 -52.375 7.660156 -53.832031 6.671875 -55.1875 C 5.679688 -56.550781 4.488281 -57.359375 3.09375 -57.609375 L 24.234375 -60.703125 L 24.59375 -60.703125 C 26 -60.703125 26.703125 -60 26.703125 -58.59375 Z M 26.703125 -6.796875 "/></g></g></g><g clip-path="url(#46fad6a9b8)"><path fill="#ffde59" d="M 305.703125 203.042969 C 295.945312 204.839844 294.492188 206.292969 292.695312 216.050781 C 290.898438 206.292969 289.441406 204.839844 279.6875 203.042969 C 289.441406 201.246094 290.898438 199.792969 292.695312 190.035156 C 294.492188 199.792969 295.945312 201.246094 305.703125 203.042969 Z M 305.703125 203.042969 " fill-opacity="1" fill-rule="nonzero"/></g></svg>