<svg width="50" height="50" viewBox="0 0 50 50" fill="none" xmlns="http://www.w3.org/2000/svg">
<path d="M2.08301 37.5C2.39551 33.7847 3.53301 30.3646 5.49551 27.2396C7.45801 24.1146 10.0705 21.6319 13.333 19.7917L9.47884 13.125C9.27051 12.8125 9.21842 12.4826 9.32259 12.1354C9.42676 11.7882 9.65245 11.5278 9.99967 11.3542C10.2775 11.1806 10.59 11.1458 10.9372 11.25C11.2844 11.3542 11.5622 11.5625 11.7705 11.875L15.6247 18.5417C18.6108 17.2917 21.7358 16.6667 24.9997 16.6667C28.2636 16.6667 31.3886 17.2917 34.3747 18.5417L38.2288 11.875C38.4372 11.5625 38.715 11.3542 39.0622 11.25C39.4094 11.1458 39.7219 11.1806 39.9997 11.3542C40.3469 11.5278 40.5726 11.7882 40.6768 12.1354C40.7809 12.4826 40.7288 12.8125 40.5205 13.125L36.6663 19.7917C39.9302 21.6319 42.5427 24.1146 44.5038 27.2396C46.4649 30.3646 47.6025 33.7847 47.9163 37.5H2.08301ZM14.583 31.7708C15.3122 31.7708 15.9288 31.5187 16.433 31.0146C16.9372 30.5104 17.1886 29.8944 17.1872 29.1667C17.1858 28.4389 16.9337 27.8222 16.4309 27.3167C15.9281 26.8111 15.3122 26.5597 14.583 26.5625C13.8538 26.5653 13.2372 26.8174 12.733 27.3187C12.2288 27.8201 11.9775 28.4361 11.9788 29.1667C11.9802 29.8972 12.2323 30.5139 12.7351 31.0167C13.2379 31.5194 13.8538 31.7708 14.583 31.7708ZM35.4163 31.7708C36.1455 31.7708 36.7622 31.5187 37.2663 31.0146C37.7705 30.5104 38.0219 29.8944 38.0205 29.1667C38.0191 28.4389 37.767 27.8222 37.2643 27.3167C36.7615 26.8111 36.1455 26.5597 35.4163 26.5625C34.6872 26.5653 34.0705 26.8174 33.5663 27.3187C33.0622 27.8201 32.8108 28.4361 32.8122 29.1667C32.8136 29.8972 33.0656 30.5139 33.5684 31.0167C34.0712 31.5194 34.6872 31.7708 35.4163 31.7708Z" fill="#3F0591"/>
</svg>
