<svg width="95" height="25" viewBox="0 0 95 25" fill="none" xmlns="http://www.w3.org/2000/svg">
<path d="M22.9166 12.4999C22.9166 6.74992 18.2499 2.08325 12.4999 2.08325C6.74992 2.08325 2.08325 6.74992 2.08325 12.4999C2.08325 17.5416 5.66659 21.7395 10.4166 22.7083V15.6249H8.33325V12.4999H10.4166V9.89575C10.4166 7.88534 12.052 6.24992 14.0624 6.24992H16.6666V9.37492H14.5833C14.0103 9.37492 13.5416 9.84367 13.5416 10.4166V12.4999H16.6666V15.6249H13.5416V22.8645C18.802 22.3437 22.9166 17.9062 22.9166 12.4999Z" fill="#3F0591"/>
<path d="M53.9635 2.34375H57.4094L49.8812 10.9479L58.7375 22.6562H51.8021L46.3708 15.5552L40.1562 22.6562H36.7083L44.7604 13.4531L36.2656 2.34375H43.375L48.2844 8.83437L53.9635 2.34375ZM52.7542 20.5937H54.6635L42.3385 4.29792H40.2896L52.7542 20.5937Z" fill="#3F0591"/>
<path d="M78.1249 2.08325H86.8749C90.2083 2.08325 92.9166 4.79159 92.9166 8.12492V16.8749C92.9166 18.4773 92.2801 20.014 91.147 21.147C90.014 22.2801 88.4773 22.9166 86.8749 22.9166H78.1249C74.7916 22.9166 72.0833 20.2083 72.0833 16.8749V8.12492C72.0833 6.52257 72.7198 4.98585 73.8528 3.85282C74.9858 2.71978 76.5226 2.08325 78.1249 2.08325ZM77.9166 4.16659C76.922 4.16659 75.9682 4.56167 75.2649 5.26493C74.5617 5.9682 74.1666 6.92202 74.1666 7.91658V17.0833C74.1666 19.1562 75.8437 20.8333 77.9166 20.8333H87.0833C88.0778 20.8333 89.0316 20.4382 89.7349 19.7349C90.4382 19.0316 90.8333 18.0778 90.8333 17.0833V7.91658C90.8333 5.84367 89.1562 4.16659 87.0833 4.16659H77.9166ZM87.9687 5.72909C88.314 5.72909 88.6452 5.86627 88.8894 6.11046C89.1336 6.35464 89.2708 6.68583 89.2708 7.03117C89.2708 7.3765 89.1336 7.70769 88.8894 7.95188C88.6452 8.19607 88.314 8.33325 87.9687 8.33325C87.6233 8.33325 87.2921 8.19607 87.048 7.95188C86.8038 7.70769 86.6666 7.3765 86.6666 7.03117C86.6666 6.68583 86.8038 6.35464 87.048 6.11046C87.2921 5.86627 87.6233 5.72909 87.9687 5.72909ZM82.4999 7.29159C83.8813 7.29159 85.206 7.84032 86.1828 8.81707C87.1595 9.79382 87.7083 11.1186 87.7083 12.4999C87.7083 13.8813 87.1595 15.206 86.1828 16.1828C85.206 17.1595 83.8813 17.7083 82.4999 17.7083C81.1186 17.7083 79.7938 17.1595 78.8171 16.1828C77.8403 15.206 77.2916 13.8813 77.2916 12.4999C77.2916 11.1186 77.8403 9.79382 78.8171 8.81707C79.7938 7.84032 81.1186 7.29159 82.4999 7.29159ZM82.4999 9.37492C81.6711 9.37492 80.8763 9.70416 80.2902 10.2902C79.7042 10.8763 79.3749 11.6711 79.3749 12.4999C79.3749 13.3287 79.7042 14.1236 80.2902 14.7096C80.8763 15.2957 81.6711 15.6249 82.4999 15.6249C83.3287 15.6249 84.1236 15.2957 84.7096 14.7096C85.2957 14.1236 85.6249 13.3287 85.6249 12.4999C85.6249 11.6711 85.2957 10.8763 84.7096 10.2902C84.1236 9.70416 83.3287 9.37492 82.4999 9.37492Z" fill="#3F0591"/>
</svg>
